<?xml version="1.0" encoding="UTF-8"?><svg id="e" xmlns="http://www.w3.org/2000/svg" viewBox="0 0 110 28"><defs><style>.h,.i{fill:#4d4d4d;}.j{fill:#0076b9;stroke:#0076b9;}.j,.i,.k{stroke-miterlimit:10;stroke-width:.5px;}.i{stroke:#4d4d4d;}.k{stroke:#000;}</style></defs><g><path id="f" class="j" d="M23.38,26.42l-.18-.31,1.84-1.06-1.24-2.14c-.04-.06-.03-.14,0-.19l1.78-2.48c.99-1.38,1.51-3,1.51-4.69v-3.14c0-.16-.08-.31-.23-.39-.14-.08-.31-.08-.45,0l-2.72,1.57c-1.47,.85-2.61,2.11-3.31,3.65l-1.26,2.78c-.03,.06-.09,.11-.16,.11h-2.47v2.13h-.36v-2.31c0-.1,.08-.18,.18-.18h2.54l1.21-2.68c.73-1.61,1.93-2.93,3.46-3.82l2.72-1.57c.25-.15,.55-.15,.81,0,.25,.15,.41,.41,.41,.7v3.14c0,1.77-.55,3.46-1.58,4.9l-1.71,2.39,1.27,2.2s.03,.09,.02,.14c-.01,.05-.04,.09-.08,.11l-2,1.15Zm.29-7.27c-.28,0-.55-.07-.79-.21-.76-.44-1.02-1.41-.58-2.17,.44-.76,1.42-1.02,2.17-.58,.37,.21,.63,.56,.74,.97,.11,.41,.05,.84-.16,1.21h0c-.21,.37-.56,.63-.97,.74-.14,.04-.28,.06-.41,.06Zm0-2.82c-.43,0-.84,.22-1.07,.62-.34,.59-.14,1.34,.45,1.68,.29,.16,.62,.21,.94,.12,.32-.09,.58-.29,.75-.57h0c.16-.28,.21-.62,.12-.94s-.29-.58-.57-.75c-.19-.11-.41-.16-.61-.16Zm-5.11,10.34c.66-.02,1.39-.08,1.78-.35l.04-.03c.35-.24,.58-.6,.65-1.02,.07-.42-.02-.84-.26-1.18-.5-.72-1.49-.89-2.2-.39l-.04,.03c-.39,.27-.69,.93-.94,1.54-.04,.09,0,.19,.1,.23,.09,.04,.2,0,.23-.1,.13-.31,.46-1.14,.81-1.39l.04-.03c.55-.39,1.32-.25,1.7,.31,.19,.27,.26,.59,.2,.91-.06,.32-.24,.6-.5,.79l-.04,.03c-.35,.25-1.25,.27-1.58,.28-.1,0-.18,.09-.17,.18,0,.07,.04,.13,.1,.16,.03,.01,.05,.02,.08,.02Z"/><path class="k" d="M10.85,20.42l1.81-2.85-.52-.33-1.81,2.85c-.52-.27-1.1-.43-1.73-.43-2.05,0-3.72,1.67-3.72,3.72s1.67,3.72,3.72,3.72,3.72-1.67,3.72-3.72c0-1.21-.58-2.28-1.47-2.96Zm-2.25,6.07c-1.71,0-3.1-1.39-3.1-3.1s1.39-3.1,3.1-3.1,3.1,1.39,3.1,3.1-1.39,3.1-3.1,3.1Z"/><path id="g" class="i" d="M14.57,27.1c-.73,0-1.47-.06-2.18-.18l.1-.61c.68,.12,1.38,.17,2.08,.17v.61ZM3.78,21.42c-.47-.68-.88-1.42-1.22-2.18l.56-.25c.32,.73,.71,1.43,1.16,2.08l-.5,.35Zm-.19-3.6c-.08,0-.16-.03-.22-.09l-1.81-1.8c-.06-.06-.09-.14-.09-.22s.03-.16,.09-.22l1.81-1.81c.12-.12,.31-.12,.43,0l1.81,1.81c.06,.06,.09,.14,.09,.22s-.03,.16-.09,.22l-1.81,1.81c-.06,.06-.14,.09-.22,.09Zm-1.38-2.11l1.38,1.37,1.38-1.37-1.37-1.37-1.38,1.38Zm6.18,1.86c-.62-1.08-.95-2.31-.95-3.57,0-3.26,2.2-6.1,5.35-6.91l.15,.59c-2.88,.74-4.89,3.33-4.89,6.31,0,1.15,.3,2.27,.87,3.26l-.53,.31Zm6.18-.7c-1.58,0-2.87-1.29-2.87-2.87,0-1.48,1.12-2.7,2.56-2.85V6.32h.61v4.83c1.44,.16,2.56,1.37,2.56,2.85,0,1.58-1.29,2.87-2.87,2.87Zm0-5.12c-1.24,0-2.25,1.01-2.25,2.25s1.01,2.25,2.25,2.25,2.25-1.01,2.25-2.25c0-1.24-1.01-2.25-2.25-2.25Zm11.78-1.97c-1.45-4.02-4.93-7.13-9.28-8.02l.12-.6c4.62,.94,8.3,4.27,9.79,8.57l-.64,.05Zm-4.95,2.82c-.05,0-.11-.01-.15-.04l-2.22-1.28c-.09-.05-.15-.16-.15-.27v-2.56c0-.11,.06-.21,.15-.27l2.22-1.28c.09-.05,.21-.05,.31,0l2.22,1.28c.09,.05,.15,.16,.15,.27v2.56c0,.11-.06,.21-.15,.27l-2.22,1.28s-.1,.04-.15,.04Zm-1.91-1.76l1.91,1.1,1.91-1.1v-2.2l-1.91-1.1-1.91,1.1v2.2Zm-4.92-6.76c-.87,0-1.58-.71-1.58-1.59s.71-1.58,1.58-1.58,1.59,.71,1.59,1.58c0,.88-.71,1.59-1.59,1.59Zm0-2.56c-.53,0-.97,.43-.97,.97s.43,.98,.97,.98,.97-.44,.97-.98c0-.53-.44-.97-.97-.97ZM1.81,13.44h-.02c-.17-.01-.3-.15-.28-.32v-.02c.01-.17,.16-.3,.33-.28,.17,.01,.3,.16,.28,.33-.01,.16-.15,.29-.31,.29Zm.23-2.01h0Zm.46-1.66h0Zm.67-1.29s-.09-.01-.14-.03c-.15-.08-.21-.25-.14-.4v-.02c.09-.15,.28-.2,.43-.12,.15,.08,.2,.27,.12,.42-.06,.1-.17,.17-.28,.17Zm1.96-2.82c-.08,0-.15-.03-.21-.08-.12-.11-.13-.3-.02-.42,0,0,.02-.02,.02-.02,.12-.12,.31-.12,.43,0s.12,.31,0,.43c-.06,.06-.14,.09-.23,.09Zm-1.07,1.34c-.08,0-.15-.03-.21-.08-.12-.11-.13-.3-.02-.42,0,0,.02-.02,.02-.02,.12-.12,.31-.12,.43,0,.12,.12,.12,.31,0,.43-.06,.06-.14,.09-.23,.09Zm-1.57,3.07c-.08,0-.15-.03-.21-.08-.12-.11-.13-.3-.02-.42,0,0,.02-.02,.02-.02,.12-.12,.31-.12,.43,0,.12,.12,.12,.31,0,.43-.06,.06-.14,.09-.23,.09Zm-.46,1.66c-.08,0-.15-.03-.21-.08-.12-.11-.13-.3-.02-.42,0,0,.02-.02,.02-.02,.12-.12,.31-.12,.43,0s.12,.31,0,.43c-.06,.06-.14,.09-.23,.09Zm12.89,9.38c-.08,0-.15-.03-.21-.08-.12-.11-.13-.3-.02-.42,0,0,.02-.02,.02-.02,.12-.12,.31-.12,.43,0s.12,.31,0,.43c-.06,.06-.14,.09-.23,.09ZM6.36,4.49c-.08,0-.17-.04-.23-.1-.11-.13-.1-.32,.03-.44,0,0,.03-.02,.04-.03,.14-.1,.33-.07,.43,.07,.1,.14,.07,.33-.07,.43-.06,.05-.13,.08-.2,.08Zm2.92-1.84c-.12,0-.23-.07-.28-.18-.07-.15-.01-.32,.14-.39,0,0,.03-.02,.04-.02,.16-.06,.34,.02,.4,.18,.06,.16-.02,.34-.18,.4-.04,.01-.08,.02-.11,.02Zm-1.51,.81c-.12,0-.23-.07-.28-.18-.07-.15-.01-.32,.14-.39,0,0,.03-.02,.04-.02,.16-.06,.34,.02,.4,.18s-.02,.34-.18,.4c-.04,.01-.08,.02-.11,.02Zm3.12-1.42c-.13,0-.26-.08-.3-.21-.05-.16,.03-.33,.2-.38h.02c.16-.05,.33,.04,.38,.2,.05,.16-.04,.33-.2,.38-.03,0-.06,.01-.09,.01Zm2.35,18.95s-.03,0-.05,0c-.01,0-.04,0-.05-.01-.16-.05-.26-.22-.21-.38,.05-.16,.21-.26,.38-.21,.17,.02,.27,.18,.25,.35-.02,.15-.16,.26-.31,.26Z"/></g><g><path class="h" d="M33.69,9.71h2.64v1.02c.48-.51,.91-.86,1.29-1.04,.38-.2,.84-.29,1.36-.29,.7,0,1.42,.23,2.18,.68l-1.21,2.41c-.5-.36-.99-.54-1.46-.54-1.44,0-2.16,1.09-2.16,3.26v5.92h-2.64V9.71Z"/><path class="h" d="M49.48,9.71h2.65v11.41h-2.65v-1.2c-1.09,1.02-2.25,1.52-3.5,1.52-1.58,0-2.88-.57-3.91-1.71-1.02-1.16-1.54-2.62-1.54-4.36s.51-3.14,1.54-4.28,2.3-1.71,3.84-1.71c1.33,0,2.52,.55,3.57,1.64v-1.32Zm-6.26,5.67c0,1.09,.29,1.98,.88,2.67,.6,.7,1.36,1.04,2.27,1.04,.98,0,1.77-.34,2.37-1.01,.6-.7,.9-1.58,.9-2.65s-.3-1.95-.9-2.65c-.6-.68-1.38-1.02-2.34-1.02-.91,0-1.66,.34-2.27,1.03-.6,.7-.9,1.55-.9,2.58Z"/><path class="h" d="M56.65,9.71v6.55c0,1.89,.75,2.84,2.24,2.84s2.24-.95,2.24-2.84v-6.55h2.64v6.61c0,.91-.11,1.7-.34,2.37-.22,.59-.6,1.13-1.14,1.61-.89,.77-2.02,1.16-3.4,1.16s-2.5-.39-3.39-1.16c-.55-.48-.93-1.01-1.16-1.61-.22-.53-.33-1.32-.33-2.37v-6.61h2.64Z"/><path class="h" d="M65.65,9.71h2.64v1.05c.51-.53,.94-.89,1.3-1.08,.38-.2,.86-.29,1.44-.29,1.29,0,2.31,.56,3.06,1.69,.83-1.12,1.95-1.69,3.36-1.69,2.57,0,3.86,1.56,3.86,4.68v7.05h-2.65v-6.34c0-1.09-.13-1.87-.4-2.32-.27-.46-.72-.69-1.35-.69-.73,0-1.26,.27-1.59,.82s-.5,1.43-.5,2.64v5.89h-2.65v-6.3c0-2.03-.59-3.05-1.76-3.05-.74,0-1.28,.28-1.62,.83s-.51,1.43-.51,2.62v5.89h-2.64V9.71Z"/><path class="h" d="M93.59,16.04h-8.18c.07,.94,.38,1.68,.91,2.24,.54,.55,1.23,.82,2.07,.82,.66,0,1.2-.16,1.63-.47,.42-.31,.9-.89,1.44-1.73l2.23,1.24c-.34,.59-.71,1.09-1.09,1.51s-.79,.76-1.23,1.03-.91,.47-1.42,.59-1.06,.19-1.65,.19c-1.7,0-3.07-.55-4.1-1.64-1.03-1.1-1.55-2.56-1.55-4.38s.5-3.27,1.5-4.38c1.01-1.1,2.34-1.65,4.01-1.65s3.01,.54,3.98,1.61c.97,1.06,1.45,2.54,1.45,4.42v.62Zm-2.72-2.16c-.37-1.41-1.25-2.11-2.66-2.11-.32,0-.62,.05-.9,.15s-.54,.24-.77,.42-.43,.4-.59,.66-.29,.55-.38,.88h5.3Z"/><path class="h" d="M95.03,9.71h2.64v1.02c.48-.51,.91-.86,1.29-1.04,.38-.2,.84-.29,1.36-.29,.7,0,1.42,.23,2.18,.68l-1.21,2.41c-.5-.36-.99-.54-1.46-.54-1.44,0-2.16,1.09-2.16,3.26v5.92h-2.64V9.71Z"/></g></svg>