<svg xmlns="http://www.w3.org/2000/svg" viewBox="0 0 248.88 250.76"><defs><style>.a{fill:#4d4d4d;stroke:#4d4d4d;}.a,.b,.c{stroke-miterlimit:10;stroke-width:5px;}.b{stroke:#000;}.c{fill:#0076b9;stroke:#0076b9;}</style></defs><path class="a" d="M125.4,248.22a123.08,123.08,0,0,1-20.46-1.7l1-5.68a117.1,117.1,0,0,0,19.51,1.61ZM24.14,195a122.71,122.71,0,0,1-11.4-20.48L18,172.18A116,116,0,0,0,28.88,191.7ZM22.39,161.2a2.85,2.85,0,0,1-2-.84l-17-16.93a2.9,2.9,0,0,1,0-4.09l17-17a2.87,2.87,0,0,1,4.07,0l17,17a2.89,2.89,0,0,1,0,4.07l-17,17A2.88,2.88,0,0,1,22.39,161.2ZM9.46,141.37l12.93,12.87,12.9-12.9L22.4,128.44Zm58,17.42a66.92,66.92,0,0,1,41.24-98.23l1.43,5.57a61.16,61.16,0,0,0-37.69,89.75Zm57.93-6.57a26.88,26.88,0,0,1-2.87-53.61V53.34h5.76V98.61a26.88,26.88,0,0,1-2.89,53.61Zm0-48a21.12,21.12,0,1,0,21.11,21.12A21.14,21.14,0,0,0,125.4,104.22ZM235.88,85.78a117.56,117.56,0,0,0-87-75.21L150,4.92a123.35,123.35,0,0,1,91.84,80.42Zm-46.46,26.44a3,3,0,0,1-1.44-.38l-20.79-12a2.92,2.92,0,0,1-1.45-2.5v-24a2.9,2.9,0,0,1,1.45-2.5l20.79-12a2.91,2.91,0,0,1,2.87,0l20.79,12a2.92,2.92,0,0,1,1.44,2.5v24a2.91,2.91,0,0,1-1.44,2.5l-20.79,12A2.89,2.89,0,0,1,189.42,112.22Zm-17.9-16.54L189.42,106l17.9-10.33V75l-17.9-10.33L171.52,75ZM125.36,32.26a14.88,14.88,0,1,1,14.91-14.92A14.9,14.9,0,0,1,125.36,32.26Zm0-24a9.12,9.12,0,1,0,9.14,9.08A9.1,9.1,0,0,0,125.36,8.26ZM5.66,120.16h-.2a2.81,2.81,0,0,1-2.66-3V117a2.84,2.84,0,0,1,3.1-2.65,2.89,2.89,0,0,1,2.65,3.1A3,3,0,0,1,5.66,120.16Zm2.14-18.8h0Zm4.27-15.58h0ZM18.4,73.72a2.67,2.67,0,0,1-1.28-.32,2.79,2.79,0,0,1-1.28-3.76,2.53,2.53,0,0,1,.12-.23A2.88,2.88,0,1,1,21,72.15,3,3,0,0,1,18.4,73.72ZM36.79,47.23a2.85,2.85,0,0,1-2.17-4.72s.18-.19.22-.23a2.88,2.88,0,0,1,4.08,4.08A3.06,3.06,0,0,1,36.79,47.23ZM26.72,59.8a2.85,2.85,0,0,1-2.17-4.72,2.18,2.18,0,0,1,.21-.22,2.88,2.88,0,1,1,4.08,4.07A3,3,0,0,1,26.72,59.8ZM12,88.59a2.85,2.85,0,0,1-2.17-4.72l.22-.23a2.88,2.88,0,0,1,4.07,4.08A3.08,3.08,0,0,1,12,88.59ZM7.75,104.16a2.78,2.78,0,0,1-1.95-.76,2.81,2.81,0,0,1-.22-4,2.28,2.28,0,0,1,.22-.22,2.88,2.88,0,1,1,4.07,4.07A3,3,0,0,1,7.75,104.16Zm120.91,88a2.85,2.85,0,0,1-2.17-4.72,2.28,2.28,0,0,1,.22-.22,2.88,2.88,0,1,1,4.07,4.07A3,3,0,0,1,128.66,192.18Zm-80.28-156a2.89,2.89,0,0,1-2.15-1,2.93,2.93,0,0,1,.27-4.11l.35-.29a2.88,2.88,0,1,1,3.39,4.66A2.72,2.72,0,0,1,48.38,36.22Zm27.4-17.3a2.91,2.91,0,0,1-2.67-1.69,2.84,2.84,0,0,1,1.67-3.88,2.88,2.88,0,1,1,2.06,5.37A2.93,2.93,0,0,1,75.78,18.92ZM61.6,26.52a2.9,2.9,0,0,1-2.67-1.68,2.82,2.82,0,0,1,1.27-3.71,3.42,3.42,0,0,1,.4-.17,2.88,2.88,0,0,1,2.07,5.37A3.06,3.06,0,0,1,61.6,26.52ZM90.9,13.24a2.93,2.93,0,0,1-2.81-2,2.81,2.81,0,0,1,1.83-3.58l.16,0a2.88,2.88,0,0,1,1.69,5.51A3.2,3.2,0,0,1,90.9,13.24Zm22,177.77a2.35,2.35,0,0,1-.45,0,3.1,3.1,0,0,1-.51-.11,2.88,2.88,0,0,1,1.59-5.53,2.79,2.79,0,0,1,2.31,3.26A3,3,0,0,1,112.93,191Z"/><path class="b" d="M90.46,185.6l17-26.71-4.86-3.09-17,26.7a35,35,0,1,0,4.86,3.1ZM69.4,242.5a29.12,29.12,0,1,1,29.12-29.12A29.15,29.15,0,0,1,69.4,242.5Z"/><path class="c" d="M208.07,241.91,206.39,239l17.27-10-11.59-20.09a1.69,1.69,0,0,1,.09-1.82l16.69-23.26a75,75,0,0,0,14.16-44V110.38a4.22,4.22,0,0,0-6.32-3.66l-25.53,14.74a75.11,75.11,0,0,0-31,34.27l-11.79,26.09a1.71,1.71,0,0,1-1.54,1h-23.2v20h-3.37V181.12a1.69,1.69,0,0,1,1.69-1.68h23.79L177,154.34a78.43,78.43,0,0,1,32.44-35.8L235,103.8a7.59,7.59,0,0,1,11.38,6.58v29.46a78.37,78.37,0,0,1-14.81,46l-16,22.38,11.89,20.6a1.61,1.61,0,0,1,.17,1.27,1.65,1.65,0,0,1-.79,1Zm2.74-68.19a14.93,14.93,0,1,1,12.95-7.47h0a15,15,0,0,1-12.95,7.47Zm.05-26.48a11.56,11.56,0,1,0,10,17.33h0a11.54,11.54,0,0,0-10-17.33Zm-47.92,97c6.19-.19,13-.71,16.66-3.26l.34-.25a14.82,14.82,0,0,0,3.69-20.64,14.85,14.85,0,0,0-20.65-3.7l-.34.25c-3.65,2.53-6.51,8.74-8.82,14.48a1.7,1.7,0,0,0,.92,2.19,1.68,1.68,0,0,0,2.19-.93c1.18-2.92,4.31-10.67,7.63-13l.34-.24A11.47,11.47,0,1,1,178,237.94l-.34.24c-3.33,2.31-11.69,2.56-14.83,2.65a1.68,1.68,0,0,0-.67,3.21A1.58,1.58,0,0,0,162.94,244.21Z"/></svg>